<mxfile host="app.diagrams.net" agent="Mozilla/5.0 (Windows NT 10.0; Win64; x64) AppleWebKit/537.36 (KHTML, like Gecko) Chrome/136.0.0.0 Safari/537.36 Edg/136.0.0.0" version="27.0.6">
  <diagram id="prtHgNgQTEPvFCAcTncT" name="Page-1">
    <mxGraphModel dx="375" dy="266" grid="1" gridSize="10" guides="1" tooltips="1" connect="1" arrows="1" fold="1" page="1" pageScale="1" pageWidth="827" pageHeight="1169" math="0" shadow="0">
      <root>
        <mxCell id="0" />
        <mxCell id="1" parent="0" />
        <mxCell id="IRpuZfnpYJztKrdek_so-10" value="" style="rounded=0;whiteSpace=wrap;html=1;fillColor=#d5e8d4;strokeColor=#82b366;" parent="1" vertex="1">
          <mxGeometry x="40" y="540" width="520" height="480" as="geometry" />
        </mxCell>
        <mxCell id="IRpuZfnpYJztKrdek_so-3" value="&lt;font style=&quot;font-size: 20px;&quot;&gt;User&lt;/font&gt;&lt;div&gt;&lt;font style=&quot;font-size: 20px;&quot;&gt;Command&lt;/font&gt;&lt;/div&gt;" style="rounded=1;whiteSpace=wrap;html=1;fillColor=#dae8fc;strokeColor=#6c8ebf;" parent="1" vertex="1">
          <mxGeometry x="80" y="580" width="120" height="80" as="geometry" />
        </mxCell>
        <mxCell id="IRpuZfnpYJztKrdek_so-5" value="" style="shape=flexArrow;endArrow=classic;html=1;rounded=0;width=4;endSize=5.757615894039735;endWidth=5.291873163457743;fillColor=#f8cecc;strokeColor=none;" parent="1" edge="1">
          <mxGeometry width="50" height="50" relative="1" as="geometry">
            <mxPoint x="200" y="619.86" as="sourcePoint" />
            <mxPoint x="280" y="619.86" as="targetPoint" />
          </mxGeometry>
        </mxCell>
        <mxCell id="IRpuZfnpYJztKrdek_so-8" value="&lt;font style=&quot;font-size: 20px;&quot;&gt;Agentic Controler&lt;/font&gt;" style="rounded=1;whiteSpace=wrap;html=1;fillColor=#dae8fc;strokeColor=#6c8ebf;" parent="1" vertex="1">
          <mxGeometry x="280" y="600" width="240" height="40" as="geometry" />
        </mxCell>
        <mxCell id="IRpuZfnpYJztKrdek_so-9" value="" style="endArrow=none;dashed=1;html=1;strokeWidth=2;rounded=0;strokeColor=#FF0000;" parent="1" edge="1">
          <mxGeometry width="50" height="50" relative="1" as="geometry">
            <mxPoint x="240" y="1010" as="sourcePoint" />
            <mxPoint x="240" y="540" as="targetPoint" />
          </mxGeometry>
        </mxCell>
        <mxCell id="IRpuZfnpYJztKrdek_so-11" value="User Side" style="text;html=1;align=center;verticalAlign=middle;whiteSpace=wrap;rounded=0;" parent="1" vertex="1">
          <mxGeometry x="140" y="555.97" width="55" height="19" as="geometry" />
        </mxCell>
        <mxCell id="IRpuZfnpYJztKrdek_so-12" value="" style="points=[];aspect=fixed;html=1;align=center;shadow=0;dashed=0;fillColor=#dae8fc;strokeColor=#6c8ebf;shape=mxgraph.alibaba_cloud.csas_cloud_security_access_service;" parent="1" vertex="1">
          <mxGeometry x="254.95" y="550.95" width="25.05" height="29.05" as="geometry" />
        </mxCell>
        <mxCell id="IRpuZfnpYJztKrdek_so-13" value="Access Point Side" style="text;html=1;align=center;verticalAlign=middle;whiteSpace=wrap;rounded=0;" parent="1" vertex="1">
          <mxGeometry x="280" y="555.97" width="110" height="19" as="geometry" />
        </mxCell>
        <mxCell id="IRpuZfnpYJztKrdek_so-14" value="" style="points=[];aspect=fixed;html=1;align=center;shadow=0;dashed=0;fillColor=#dae8fc;strokeColor=#6c8ebf;shape=mxgraph.alibaba_cloud.user;" parent="1" vertex="1">
          <mxGeometry x="200" y="553.48" width="23.99" height="23.99" as="geometry" />
        </mxCell>
        <mxCell id="IRpuZfnpYJztKrdek_so-15" value="" style="html=1;shadow=0;dashed=0;align=center;verticalAlign=middle;shape=mxgraph.arrows2.bendArrow;dy=2.06;dx=18.79;notch=0;arrowHead=10.94;rounded=0;flipH=1;flipV=1;direction=north;fillColor=#f8cecc;strokeColor=none;" parent="1" vertex="1">
          <mxGeometry x="400" y="660" width="80" height="60" as="geometry" />
        </mxCell>
        <mxCell id="IRpuZfnpYJztKrdek_so-16" value="" style="shape=flexArrow;endArrow=classic;html=1;rounded=0;width=4;endSize=5.757615894039735;endWidth=5.291873163457743;fillColor=#f8cecc;strokeColor=none;exitX=0.5;exitY=1;exitDx=0;exitDy=0;" parent="1" source="IRpuZfnpYJztKrdek_so-8" edge="1">
          <mxGeometry width="50" height="50" relative="1" as="geometry">
            <mxPoint x="390" y="660.0033802816902" as="sourcePoint" />
            <mxPoint x="400" y="720" as="targetPoint" />
          </mxGeometry>
        </mxCell>
        <mxCell id="IRpuZfnpYJztKrdek_so-17" value="" style="html=1;shadow=0;dashed=0;align=center;verticalAlign=middle;shape=mxgraph.arrows2.bendArrow;dy=2.06;dx=18.79;notch=0;arrowHead=10.94;rounded=0;flipH=0;flipV=1;direction=north;fillColor=#f8cecc;strokeColor=none;" parent="1" vertex="1">
          <mxGeometry x="318" y="660" width="80" height="60" as="geometry" />
        </mxCell>
        <mxCell id="IRpuZfnpYJztKrdek_so-18" value="Mac&lt;div&gt;Agent&lt;/div&gt;" style="rounded=1;whiteSpace=wrap;html=1;fillColor=#dae8fc;strokeColor=#6c8ebf;" parent="1" vertex="1">
          <mxGeometry x="373.73" y="720" width="52.53" height="40" as="geometry" />
        </mxCell>
        <mxCell id="IRpuZfnpYJztKrdek_so-19" value="App&lt;div&gt;Agent&lt;/div&gt;" style="rounded=1;whiteSpace=wrap;html=1;fillColor=#dae8fc;strokeColor=#6c8ebf;" parent="1" vertex="1">
          <mxGeometry x="450" y="720" width="52.53" height="40" as="geometry" />
        </mxCell>
        <mxCell id="IRpuZfnpYJztKrdek_so-20" value="Phy&lt;br&gt;&lt;div&gt;Agent&lt;/div&gt;" style="rounded=1;whiteSpace=wrap;html=1;fillColor=#dae8fc;strokeColor=#6c8ebf;" parent="1" vertex="1">
          <mxGeometry x="300" y="720" width="52.53" height="40" as="geometry" />
        </mxCell>
        <mxCell id="IRpuZfnpYJztKrdek_so-22" value="" style="shape=flexArrow;endArrow=classic;html=1;rounded=0;width=4;endSize=5.757615894039735;endWidth=5.291873163457743;fillColor=#f8cecc;strokeColor=none;exitX=0.5;exitY=1;exitDx=0;exitDy=0;" parent="1" edge="1">
          <mxGeometry width="50" height="50" relative="1" as="geometry">
            <mxPoint x="399.59000000000003" y="760" as="sourcePoint" />
            <mxPoint x="399.59000000000003" y="840" as="targetPoint" />
          </mxGeometry>
        </mxCell>
        <mxCell id="IRpuZfnpYJztKrdek_so-26" value="&lt;font style=&quot;font-size: 20px;&quot;&gt;Arbit Agent&lt;/font&gt;" style="rounded=1;whiteSpace=wrap;html=1;fillColor=#dae8fc;strokeColor=#6c8ebf;" parent="1" vertex="1">
          <mxGeometry x="280" y="840" width="240" height="40" as="geometry" />
        </mxCell>
        <mxCell id="IRpuZfnpYJztKrdek_so-27" value="Phy&amp;nbsp; Task" style="text;html=1;align=center;verticalAlign=middle;whiteSpace=wrap;rounded=0;" parent="1" vertex="1">
          <mxGeometry x="298.26" y="669" width="53.74" height="25" as="geometry" />
        </mxCell>
        <mxCell id="IRpuZfnpYJztKrdek_so-28" value="Mac&amp;nbsp; Task" style="text;html=1;align=center;verticalAlign=middle;whiteSpace=wrap;rounded=0;" parent="1" vertex="1">
          <mxGeometry x="371.87" y="669" width="56.27" height="25" as="geometry" />
        </mxCell>
        <mxCell id="IRpuZfnpYJztKrdek_so-29" value="App&amp;nbsp; Task" style="text;html=1;align=center;verticalAlign=middle;whiteSpace=wrap;rounded=0;" parent="1" vertex="1">
          <mxGeometry x="445.65999999999997" y="669" width="61.21" height="25" as="geometry" />
        </mxCell>
        <mxCell id="IRpuZfnpYJztKrdek_so-31" value="" style="shape=flexArrow;endArrow=classic;html=1;rounded=0;width=4;endSize=5.757615894039735;endWidth=5.291873163457743;fillColor=#f8cecc;strokeColor=none;exitX=0.5;exitY=1;exitDx=0;exitDy=0;" parent="1" edge="1">
          <mxGeometry width="50" height="50" relative="1" as="geometry">
            <mxPoint x="400" y="880" as="sourcePoint" />
            <mxPoint x="400" y="920" as="targetPoint" />
          </mxGeometry>
        </mxCell>
        <mxCell id="IRpuZfnpYJztKrdek_so-32" value="&lt;font style=&quot;font-size: 20px;&quot;&gt;AP Configuration&lt;/font&gt;" style="rounded=1;whiteSpace=wrap;html=1;fillColor=#dae8fc;strokeColor=#6c8ebf;" parent="1" vertex="1">
          <mxGeometry x="280" y="920" width="240" height="40" as="geometry" />
        </mxCell>
        <mxCell id="IRpuZfnpYJztKrdek_so-33" value="Final&amp;nbsp; Plan" style="text;html=1;align=center;verticalAlign=middle;whiteSpace=wrap;rounded=0;" parent="1" vertex="1">
          <mxGeometry x="365.92" y="880" width="68.14" height="25" as="geometry" />
        </mxCell>
        <mxCell id="IRpuZfnpYJztKrdek_so-34" value="" style="shape=flexArrow;endArrow=classic;html=1;rounded=0;width=4;endSize=5.757615894039735;endWidth=5.291873163457743;fillColor=#f8cecc;strokeColor=none;exitX=0.5;exitY=1;exitDx=0;exitDy=0;" parent="1" edge="1">
          <mxGeometry width="50" height="50" relative="1" as="geometry">
            <mxPoint x="324.89" y="760" as="sourcePoint" />
            <mxPoint x="324.89" y="840" as="targetPoint" />
          </mxGeometry>
        </mxCell>
        <mxCell id="IRpuZfnpYJztKrdek_so-35" value="" style="shape=flexArrow;endArrow=classic;html=1;rounded=0;width=4;endSize=5.757615894039735;endWidth=5.291873163457743;fillColor=#f8cecc;strokeColor=none;exitX=0.5;exitY=1;exitDx=0;exitDy=0;" parent="1" edge="1">
          <mxGeometry width="50" height="50" relative="1" as="geometry">
            <mxPoint x="476.03" y="760" as="sourcePoint" />
            <mxPoint x="476.03" y="840" as="targetPoint" />
          </mxGeometry>
        </mxCell>
        <mxCell id="UshCN3OT18-O5CNV3XJl-1" value="Phy&amp;nbsp; Plan" style="text;html=1;align=center;verticalAlign=middle;whiteSpace=wrap;rounded=0;" vertex="1" parent="1">
          <mxGeometry x="292.2" y="780" width="68.14" height="25" as="geometry" />
        </mxCell>
        <mxCell id="UshCN3OT18-O5CNV3XJl-4" value="Mac&amp;nbsp; Plan" style="text;html=1;align=center;verticalAlign=middle;whiteSpace=wrap;rounded=0;" vertex="1" parent="1">
          <mxGeometry x="365.92" y="780" width="68.14" height="25" as="geometry" />
        </mxCell>
        <mxCell id="UshCN3OT18-O5CNV3XJl-5" value="App&amp;nbsp; Plan" style="text;html=1;align=center;verticalAlign=middle;whiteSpace=wrap;rounded=0;" vertex="1" parent="1">
          <mxGeometry x="442.2" y="780" width="68.14" height="25" as="geometry" />
        </mxCell>
        <mxCell id="UshCN3OT18-O5CNV3XJl-6" value="" style="shape=flexArrow;endArrow=classic;html=1;rounded=0;width=4;endSize=5.757615894039735;endWidth=5.291873163457743;fillColor=#f8cecc;strokeColor=none;" edge="1" parent="1">
          <mxGeometry width="50" height="50" relative="1" as="geometry">
            <mxPoint x="280" y="939.66" as="sourcePoint" />
            <mxPoint x="200" y="939.66" as="targetPoint" />
          </mxGeometry>
        </mxCell>
        <mxCell id="UshCN3OT18-O5CNV3XJl-7" value="&lt;font style=&quot;font-size: 20px;&quot;&gt;Better WIFI&lt;/font&gt;" style="rounded=1;whiteSpace=wrap;html=1;fillColor=#dae8fc;strokeColor=#6c8ebf;" vertex="1" parent="1">
          <mxGeometry x="80" y="900" width="120" height="80" as="geometry" />
        </mxCell>
        <mxCell id="UshCN3OT18-O5CNV3XJl-9" value="" style="points=[];aspect=fixed;html=1;align=center;shadow=0;dashed=0;fillColor=#dae8fc;strokeColor=#6c8ebf;shape=mxgraph.alibaba_cloud.user_feedback_02;" vertex="1" parent="1">
          <mxGeometry x="80" y="340" width="17.33" height="20.1" as="geometry" />
        </mxCell>
        <mxCell id="UshCN3OT18-O5CNV3XJl-10" value="&lt;font&gt;User&lt;/font&gt;&lt;div&gt;&lt;font&gt;Command&lt;/font&gt;&lt;/div&gt;" style="rounded=1;whiteSpace=wrap;html=1;fillColor=#dae8fc;strokeColor=#6c8ebf;" vertex="1" parent="1">
          <mxGeometry x="71.6" y="360.1" width="60" height="60" as="geometry" />
        </mxCell>
      </root>
    </mxGraphModel>
  </diagram>
</mxfile>
